{
  "accessors": {
    "accessor_index_0": {
      "bufferView": "bufferView_1",
      "byteOffset": 0,
      "byteStride": 0,
      "componentType": 5123,
      "count": 15189,
      "type": "SCALAR",
      "min": [
        0
      ],
      "max": [
        2705
      ]
    },
    "accessor_position": {
      "bufferView": "bufferView_0",
      "byteOffset": 0,
      "byteStride": 0,
      "componentType": 5126,
      "count": 2706,
      "min": [
        0.8612729907035828,
        -0.34973499178886414,
        -1.5094729661941528
      ],
      "max": [
        4.2672200202941895,
        2.4797980785369873,
        0.1652580052614212
      ],
      "type": "VEC3"
    },
    "accessor_normal": {
      "bufferView": "bufferView_0",
      "byteOffset": 32472,
      "byteStride": 0,
      "componentType": 5126,
      "count": 2706,
      "type": "VEC3",
      "min": [
        -0.9997223019599915,
        -0.9992212653160095,
        -0.9997596144676208
      ],
      "max": [
        0.999959409236908,
        0.9994863271713257,
        0.9997255802154541
      ]
    },
    "accessor_uv": {
      "bufferView": "bufferView_0",
      "byteOffset": 64944,
      "byteStride": 0,
      "componentType": 5126,
      "count": 2706,
      "type": "VEC2",
      "min": [
        0.011699999682605267,
        0.05050000175833702
      ],
      "max": [
        0.9932000041007996,
        0.9697999954223633
      ]
    }
  },
  "asset": {
    "generator": "OBJ2GLTF",
    "premultipliedAlpha": true,
    "profile": {
      "api": "WebGL",
      "version": "1.0"
    },
    "version": "1.0"
  },
  "buffers": {
    "tshirt_buffer": {
      "type": "arraybuffer",
      "byteLength": 116970,
      "uri": "tshirt_buffer.bin"
    }
  },
  "bufferViews": {
    "bufferView_0": {
      "buffer": "tshirt_buffer",
      "byteLength": 86592,
      "byteOffset": 0,
      "target": 34962
    },
    "bufferView_1": {
      "buffer": "tshirt_buffer",
      "byteLength": 30378,
      "byteOffset": 86592,
      "target": 34963
    }
  },
  "images": {},
  "materials": {
    "material_czmDefaultMat": {
      "name": "czmDefaultMat",
      "extensions": {},
      "values": {
        "ambient": [
          0,
          0,
          0,
          1
        ],
        "diffuse": [
          0.5,
          0.5,
          0.5,
          1
        ],
        "emission": [
          0,
          0,
          0,
          1
        ],
        "specular": [
          0,
          0,
          0,
          1
        ],
        "shininess": 0,
        "transparency": 1
      },
      "technique": "technique0"
    }
  },
  "meshes": {
    "mesh_tshirt": {
      "name": "tshirt",
      "primitives": [
        {
          "attributes": {
            "POSITION": "accessor_position",
            "NORMAL": "accessor_normal",
            "TEXCOORD_0": "accessor_uv"
          },
          "indices": "accessor_index_0",
          "material": "material_czmDefaultMat",
          "mode": 4
        }
      ]
    }
  },
  "nodes": {
    "rootNode": {
      "children": [],
      "meshes": [
        "mesh_tshirt"
      ],
      "matrix": [
        1,
        0,
        0,
        0,
        0,
        1,
        0,
        0,
        0,
        0,
        1,
        0,
        0,
        0,
        0,
        1
      ]
    }
  },
  "samplers": {},
  "scene": "scene_tshirt",
  "scenes": {
    "scene_tshirt": {
      "nodes": [
        "rootNode"
      ]
    }
  },
  "textures": {},
  "extensionsUsed": [],
  "animations": {},
  "cameras": {},
  "techniques": {
    "technique0": {
      "attributes": {
        "a_position": "position",
        "a_normal": "normal",
        "a_texcoord_0": "texcoord_0"
      },
      "parameters": {
        "modelViewMatrix": {
          "semantic": "MODELVIEW",
          "type": 35676
        },
        "projectionMatrix": {
          "semantic": "PROJECTION",
          "type": 35676
        },
        "normalMatrix": {
          "semantic": "MODELVIEWINVERSETRANSPOSE",
          "type": 35675
        },
        "ambient": {
          "type": 35666
        },
        "diffuse": {
          "type": 35666
        },
        "emission": {
          "type": 35666
        },
        "specular": {
          "type": 35666
        },
        "shininess": {
          "type": 5126
        },
        "transparency": {
          "type": 5126
        },
        "position": {
          "semantic": "POSITION",
          "type": 35665
        },
        "normal": {
          "semantic": "NORMAL",
          "type": 35665
        },
        "texcoord_0": {
          "semantic": "TEXCOORD_0",
          "type": 5126
        }
      },
      "program": "program0",
      "states": {
        "enable": [
          2884,
          2929
        ]
      },
      "uniforms": {
        "u_modelViewMatrix": "modelViewMatrix",
        "u_projectionMatrix": "projectionMatrix",
        "u_normalMatrix": "normalMatrix",
        "u_ambient": "ambient",
        "u_diffuse": "diffuse",
        "u_emission": "emission",
        "u_specular": "specular",
        "u_shininess": "shininess",
        "u_transparency": "transparency"
      }
    }
  },
  "programs": {
    "program0": {
      "attributes": [
        "a_position",
        "a_normal",
        "a_texcoord_0"
      ],
      "fragmentShader": "fragmentShader0",
      "vertexShader": "vertexShader0"
    }
  },
  "shaders": {
    "vertexShader0": {
      "type": 35633,
      "uri": "vertexShader0.glsl"
    },
    "fragmentShader0": {
      "type": 35632,
      "uri": "fragmentShader0.glsl"
    }
  },
  "skins": {},
  "extensions": {}
}
